<svg viewBox="0 0 21.5 21.5" xmlns="http://www.w3.org/2000/svg" xmlns:xlink="http://www.w3.org/1999/xlink" width="21.500000" height="21.500000" fill="none" customFrame="#000000">
	<rect id="vuesax/outline/arrow-right" width="21.500000" height="21.500000" x="0.000000" y="0.000000" fill="rgb(255,255,255)" fill-opacity="0" transform="matrix(-1,-5.55112e-17,-5.55112e-17,1,21.5,0)" />
	<g id="vuesax/outline/arrow-right">
		<g id="arrow-right">
			<path id="Vector" d="M0.669636 12.2169C0.499428 12.2169 0.329219 12.1542 0.194844 12.0198C-0.0649479 11.7601 -0.0649479 11.3301 0.194844 11.0703L5.15776 6.10734L0.194844 1.14443C-0.0649479 0.884635 -0.0649479 0.454635 0.194844 0.194844C0.454635 -0.0649479 0.884636 -0.0649479 1.14443 0.194844L6.58214 5.63255C6.84193 5.89234 6.84193 6.32234 6.58214 6.58214L1.14443 12.0198C1.01005 12.1542 0.839844 12.2169 0.669636 12.2169Z" fill="rgb(255,255,255)" fill-rule="nonzero" transform="matrix(-1,0,0,1,9.24182,4.64355)" />
			<path id="Vector" d="M15.7487 1.34375L0.671875 1.34375C0.304583 1.34375 0 1.03917 0 0.671875C0 0.304583 0.304583 0 0.671875 0L15.7487 0C16.116 0 16.4206 0.304583 16.4206 0.671875C16.4206 1.03917 16.116 1.34375 15.7487 1.34375Z" fill="rgb(255,255,255)" fill-rule="nonzero" transform="matrix(-1,0,0,1,19.0365,10.0764)" />
			<path id="Vector" opacity="0" transform="matrix(-1,-5.55112e-17,-5.55112e-17,1,21.5,0)" />
		</g>
	</g>
</svg>
