<svg viewBox="0 0 21.5 21.5" xmlns="http://www.w3.org/2000/svg" xmlns:xlink="http://www.w3.org/1999/xlink" width="21.500000" height="21.500000" fill="none" customFrame="#000000">
	<rect id="vuesax/outline/arrow-right" width="21.500000" height="21.500000" x="0.000000" y="0.000000" fill="rgb(255,255,255)" fill-opacity="0" />
	<g id="vuesax/outline/arrow-right">
		<g id="arrow-right">
			<path id="Vector" d="M12.9278 16.8605C12.7576 16.8605 12.5874 16.7978 12.453 16.6634C12.1932 16.4036 12.1932 15.9736 12.453 15.7138L17.4159 10.7509L12.453 5.78798C12.1932 5.52819 12.1932 5.09819 12.453 4.8384C12.7128 4.57861 13.1428 4.57861 13.4026 4.8384L18.8403 10.2761C19.1001 10.5359 19.1001 10.9659 18.8403 11.2257L13.4026 16.6634C13.2682 16.7978 13.098 16.8605 12.9278 16.8605Z" fill="rgb(0,130.55,191.006)" fill-rule="nonzero" />
			<path id="Vector" d="M18.2122 11.4202L3.13538 11.4202C2.76808 11.4202 2.4635 11.1156 2.4635 10.7483C2.4635 10.381 2.76808 10.0764 3.13538 10.0764L18.2122 10.0764C18.5795 10.0764 18.8841 10.381 18.8841 10.7483C18.8841 11.1156 18.5795 11.4202 18.2122 11.4202Z" fill="rgb(0,130.55,191.006)" fill-rule="nonzero" />
			<path id="Vector" opacity="0" />
		</g>
	</g>
</svg>
