<svg viewBox="0 0 12.9973 23.6757" xmlns="http://www.w3.org/2000/svg" xmlns:xlink="http://www.w3.org/1999/xlink" width="12.997314" height="23.675720" fill="none" customFrame="#000000">
	<path id="Vector" d="M11.0302 22.5369C10.771 22.5359 10.5895 22.4762 10.4383 22.3343C10.3665 22.2671 10.2958 22.1979 10.227 22.1272C6.93914 18.7483 3.6513 15.3694 0.363953 11.99C-0.121074 11.4915 -0.12205 11.0451 0.365417 10.5441C3.68107 7.13511 6.9977 3.72614 10.3143 0.318165C10.7867 -0.167326 11.4537 -0.0870795 11.7387 0.489692C11.9124 0.841774 11.8436 1.16978 11.6157 1.47071C11.5562 1.54895 11.483 1.61716 11.4142 1.68787C8.37226 4.81247 5.33133 7.93808 2.28357 11.0567C2.11522 11.2292 2.12108 11.3124 2.28601 11.481C5.34939 14.6186 8.40642 17.7633 11.4644 20.9069C11.8519 21.3051 11.9314 21.6703 11.7265 22.072C11.5669 22.385 11.3015 22.5139 11.0302 22.5364L11.0302 22.5369Z" fill="rgb(0,149,218)" fill-rule="nonzero" transform="matrix(-1,8.90359e-08,-8.58388e-08,-1,12.4109,23.1067)" />
	<path id="Vector" d="M10.0499 22.7482L10.0502 22.7485C10.1082 22.8029 10.1702 22.8511 10.2362 22.893C10.4561 23.0328 10.72 23.1033 11.028 23.1045L11.5977 23.1067L11.5977 22.9694C11.6586 22.9408 11.7164 22.9079 11.7713 22.8706C11.9601 22.7422 12.1137 22.562 12.2321 22.3299C12.3633 22.0726 12.4214 21.8197 12.4063 21.5713C12.3842 21.2084 12.2058 20.855 11.8713 20.5112L11.0288 19.6451L2.87051 11.2676L10.6912 3.24421L11.821 2.08367C11.8299 2.07452 11.8441 2.06015 11.8636 2.04057C11.9535 1.95014 12.0217 1.8744 12.0682 1.81335C12.2821 1.53085 12.3958 1.2437 12.4094 0.951885C12.4203 0.717034 12.3664 0.479166 12.2475 0.238281C12.1138 -0.0324729 11.9379 -0.235247 11.72 -0.370041C11.5581 -0.470214 11.373 -0.532844 11.1646 -0.557929C10.9895 -0.579003 10.8217 -0.570167 10.6611 -0.531421C10.3892 -0.465844 10.1381 -0.314588 9.90754 -0.0776541L4.79572 5.17574L-0.0413937 10.1483C-0.404955 10.522 -0.586607 10.8955 -0.58635 11.269C-0.586094 11.6414 -0.404927 12.0137 -0.0428476 12.3858L9.82017 22.523C9.89346 22.5983 9.97004 22.6734 10.0499 22.7482ZM11.0302 22.5364C11.3015 22.5139 11.5669 22.385 11.7265 22.072C11.9314 21.6703 11.8519 21.3051 11.4644 20.9069C8.40642 17.7633 5.34939 14.6186 2.28601 11.481C2.12108 11.3124 2.11522 11.2292 2.28357 11.0567C5.33133 7.93808 8.37226 4.81247 11.4142 1.68787C11.483 1.61716 11.5562 1.54895 11.6157 1.47071C11.8436 1.16978 11.9124 0.841774 11.7387 0.489692C11.4537 -0.0870795 10.7867 -0.167326 10.3143 0.318165C6.9977 3.72614 3.68107 7.13511 0.365417 10.5441C-0.12205 11.0451 -0.121074 11.4915 0.363953 11.99C3.6513 15.3694 6.93914 18.7483 10.227 22.1272C10.2958 22.1979 10.3665 22.2671 10.4383 22.3343C10.4463 22.3418 10.4544 22.3491 10.4626 22.3562C10.609 22.4824 10.7848 22.536 11.0302 22.5369L11.0302 22.5364Z" fill="rgb(0,149,218)" fill-rule="evenodd" transform="matrix(-1,8.90359e-08,-8.58388e-08,-1,12.4109,23.1067)" />
</svg>
