<svg viewBox="0 0 9.31946 16.0559" xmlns="http://www.w3.org/2000/svg" xmlns:xlink="http://www.w3.org/1999/xlink" width="9.319458" height="16.055908" fill="none" customFrame="#000000">
	<path id="facebook icon" d="M2.52383 12.2499C2.52383 11.1665 2.52067 10.0832 2.52778 8.9999C2.52857 8.86753 2.48354 8.84186 2.33818 8.84389C1.76385 8.85132 1.19032 8.84726 0.61599 8.84659C0.311841 8.84659 0.169642 8.7257 0.169642 8.46567C0.168062 7.67006 0.168062 6.87378 0.169642 6.07817C0.169642 5.81882 0.313421 5.69793 0.61757 5.69725C1.20217 5.69658 1.78676 5.69455 2.37057 5.69928C2.48986 5.70063 2.52778 5.67632 2.5262 5.56893C2.51988 4.79494 2.53094 4.02162 2.5815 3.24897C2.60994 2.80794 2.6684 2.37029 2.78848 1.93872C3.04128 1.031 3.71673 0.51365 4.77374 0.332646C5.43576 0.21918 6.10646 0.190814 6.77796 0.177306C7.41865 0.164474 8.06013 0.169202 8.7016 0.168527C9.0176 0.168527 9.15032 0.283342 9.15032 0.55755C9.15111 1.34438 9.15111 2.13188 9.15032 2.91871C9.15032 3.19292 9.0176 3.30638 8.70081 3.30706C8.18415 3.30841 7.66671 3.30368 7.15163 3.35501C6.54333 3.41579 6.34583 3.58802 6.27315 4.10672C6.20284 4.60448 6.21469 5.10359 6.206 5.6027C6.20442 5.71346 6.2771 5.69725 6.35373 5.69725C7.12398 5.69725 7.89502 5.69725 8.66526 5.69725C9.01918 5.69725 9.15032 5.80937 9.15032 6.11329C9.15032 6.88729 9.15032 7.66061 9.15032 8.4346C9.15032 8.7365 9.01918 8.84726 8.6621 8.84726C7.8966 8.84726 7.13109 8.84997 6.36558 8.84456C6.23365 8.84389 6.20521 8.87563 6.20521 8.98437C6.20916 11.1287 6.20837 13.2731 6.20837 15.4174C6.20837 15.4613 6.21074 15.5059 6.20679 15.5498C6.18941 15.772 6.05037 15.8868 5.78889 15.8875C4.86301 15.8875 3.93713 15.8862 3.01205 15.8848C2.97571 15.8848 2.93937 15.8848 2.90382 15.8848C2.69921 15.8787 2.56412 15.7781 2.53489 15.6065C2.52699 15.5586 2.52857 15.5093 2.52857 15.4613C2.52857 14.3915 2.52857 13.321 2.52857 12.2512L2.52383 12.2512L2.52383 12.2499ZM3.2609 11.8521L3.26327 11.8521C3.26327 12.9401 3.26643 14.0275 3.25932 15.1155C3.25853 15.2479 3.30435 15.2736 3.44971 15.2722C4.06511 15.2648 4.68052 15.2648 5.29593 15.2722C5.44445 15.2743 5.47131 15.2331 5.47131 15.1169C5.46736 12.9462 5.46815 10.7748 5.46894 8.60413C5.46894 8.33397 5.60482 8.2178 5.9224 8.2178C6.7037 8.2178 7.48422 8.2151 8.26552 8.2205C8.38876 8.22118 8.42036 8.19146 8.41878 8.08813C8.41246 7.54849 8.41088 7.00953 8.41957 6.4699C8.42194 6.3463 8.37533 6.32671 8.24577 6.32807C7.4542 6.33279 6.66341 6.33144 5.87184 6.33009C5.638 6.33009 5.4721 6.2092 5.47131 6.02212C5.46894 5.33254 5.45156 4.64297 5.56216 3.95678C5.67987 3.22803 6.12858 2.84576 6.97151 2.74378C7.40917 2.6911 7.84762 2.69313 8.28685 2.69043C8.38639 2.69043 8.41878 2.66814 8.41799 2.57899C8.41325 2.02179 8.41246 1.4646 8.41799 0.9074C8.41878 0.81082 8.38007 0.789884 8.27579 0.791235C7.64538 0.802041 7.01338 0.799339 6.38296 0.817575C5.90344 0.831083 5.4247 0.866877 4.9507 0.940495C4.14648 1.06612 3.64879 1.44974 3.47894 2.14201C3.36518 2.60668 3.32094 3.07675 3.29408 3.54884C3.24826 4.35323 3.26564 5.15762 3.2609 5.96268C3.25932 6.2092 3.11949 6.32942 2.83351 6.32942C2.23864 6.32942 1.64378 6.33212 1.04891 6.32739C0.934359 6.32672 0.900389 6.35035 0.901179 6.45099C0.907499 6.9994 0.907499 7.54782 0.901179 8.09556C0.900389 8.19754 0.935149 8.21983 1.04891 8.21915C1.63351 8.2151 2.2181 8.2178 2.80191 8.21915C3.12818 8.21983 3.26011 8.33397 3.26011 8.61493C3.26011 9.69353 3.26011 10.7728 3.26011 11.8514L3.2609 11.8521Z" fill="rgb(255,255,255)" fill-rule="nonzero" />
	<path id="facebook icon" d="M2.35934 9.01222C2.35352 9.01217 2.34725 9.0122 2.34053 9.01229C2.04366 9.01613 1.59921 9.01731 1.00718 9.01582C0.833232 9.01538 0.702768 9.01511 0.615792 9.01501C0.422412 9.01501 0.273644 8.97061 0.169488 8.8818C0.145113 8.86102 0.123387 8.8382 0.104309 8.81335C0.0355835 8.72384 0.00122094 8.60795 0.00122094 8.46567L3.60459e-05 7.27175L0.00122105 6.07801C0.00122102 5.91677 0.0412423 5.79104 0.121285 5.70081C0.222542 5.58667 0.387845 5.52934 0.617196 5.52883L0.620834 5.52883L2.35748 5.53084C2.3512 4.66842 2.36985 3.90413 2.41344 3.23797C2.44587 2.73497 2.5168 2.28683 2.62622 1.89357C2.72267 1.54724 2.87706 1.2508 3.08938 1.00425C3.46247 0.570997 4.01445 0.291795 4.74531 0.166641C5.26049 0.0783434 5.93691 0.0257694 6.77457 0.008919C7.10238 0.00235347 7.59382 -0.000624865 8.24892 -1.59889e-05C8.45006 0.000170976 8.6009 0.000211522 8.70143 0.000105679C8.90146 0.000105619 9.05257 0.0443799 9.15476 0.132928C9.17103 0.147028 9.18609 0.162165 9.19994 0.178338C9.27914 0.270831 9.31874 0.397235 9.31874 0.55755L9.31933 1.73749L9.31874 2.91879C9.31874 3.08429 9.27761 3.21289 9.19534 3.30459C9.09357 3.41803 8.92885 3.47499 8.70117 3.47548C8.66759 3.47556 8.61699 3.47566 8.54937 3.47576C7.93299 3.47666 7.47264 3.49227 7.16833 3.5226C6.89996 3.54942 6.7176 3.60419 6.62126 3.68692C6.53091 3.7645 6.47047 3.91222 6.43995 4.13009C6.40346 4.38839 6.38281 4.77997 6.37799 5.30483C6.37717 5.39452 6.37636 5.46918 6.37556 5.52883L8.66526 5.52883C8.9073 5.52883 9.08211 5.58897 9.18967 5.70924C9.27572 5.80544 9.31874 5.94013 9.31874 6.11329L9.31874 8.4346C9.31874 8.61634 9.27337 8.75508 9.18264 8.85085C9.17199 8.86208 9.16072 8.87273 9.14883 8.88278C9.04399 8.97138 8.88175 9.01569 8.6621 9.01569L8.27943 9.01586L6.37365 9.013L6.3768 15.4174C6.3768 15.4246 6.37691 15.4358 6.37713 15.451C6.37784 15.4998 6.37698 15.5378 6.37454 15.5649C6.36326 15.7091 6.31891 15.8215 6.24148 15.9022C6.14361 16.0042 5.99289 16.0554 5.78932 16.0559L5.7872 16.0559L3.01188 16.0532L2.90132 16.0532L2.89882 16.0532C2.72297 16.0479 2.5899 16 2.49962 15.9095C2.43211 15.8418 2.38853 15.7502 2.36886 15.6348C2.36271 15.5975 2.35978 15.5463 2.36009 15.4811C2.36013 15.4722 2.36015 15.4657 2.36015 15.4613L2.36015 12.4196L2.35541 12.4196L2.35541 12.2499L2.35513 11.587L2.35934 9.01222ZM2.52383 12.2512L2.52857 12.2512L2.52857 15.4613L2.52851 15.4819C2.52831 15.5233 2.52812 15.5654 2.53489 15.6065C2.56412 15.7781 2.69921 15.8787 2.90382 15.8848L3.01205 15.8848C3.93713 15.8862 4.86301 15.8875 5.78889 15.8875C6.05037 15.8868 6.18941 15.772 6.20679 15.5498C6.20967 15.5179 6.2092 15.4856 6.20873 15.4534C6.20855 15.4414 6.20837 15.4294 6.20837 15.4174C6.20837 15.1111 6.20839 14.8047 6.20841 14.4984C6.2085 12.6604 6.2086 10.8224 6.20521 8.98437C6.20521 8.87563 6.23365 8.84389 6.36558 8.84456C6.93971 8.84862 7.51384 8.84811 8.08797 8.8476C8.27935 8.84743 8.47073 8.84726 8.6621 8.84726C9.01918 8.84726 9.15032 8.7365 9.15032 8.4346L9.15032 6.11329C9.15032 5.80937 9.01918 5.69725 8.66526 5.69725L6.35373 5.69725C6.3449 5.69725 6.33612 5.69747 6.3275 5.69768C6.26133 5.6993 6.20461 5.7007 6.206 5.6027C6.20774 5.50289 6.20866 5.40308 6.20957 5.30328C6.21324 4.90402 6.2169 4.50494 6.27315 4.10672C6.34583 3.58802 6.54333 3.41579 7.15163 3.35501C7.61631 3.3087 8.08291 3.30802 8.54913 3.30734C8.5997 3.30726 8.65026 3.30719 8.70081 3.30706C9.0176 3.30638 9.15032 3.19292 9.15032 2.91871C9.15111 2.13188 9.15111 1.34438 9.15032 0.55755C9.15032 0.283342 9.0176 0.168527 8.7016 0.168527C8.55065 0.168686 8.3997 0.168545 8.24876 0.168405C7.75827 0.167949 7.26788 0.167493 6.77796 0.177306C6.10646 0.190814 5.43576 0.21918 4.77374 0.332646C3.71673 0.51365 3.04128 1.031 2.78848 1.93872C2.6684 2.37029 2.60994 2.80794 2.5815 3.24897C2.53094 4.02162 2.51988 4.79494 2.5262 5.56893C2.52778 5.67632 2.48986 5.70063 2.37057 5.69928C1.88411 5.69534 1.3971 5.69609 0.909995 5.69684C0.812522 5.69699 0.715046 5.69714 0.61757 5.69725C0.313421 5.69793 0.169642 5.81882 0.169642 6.07817C0.168062 6.87378 0.168062 7.67006 0.169642 8.46567C0.169642 8.7257 0.311841 8.84659 0.61599 8.84659C0.746564 8.84674 0.877097 8.84707 1.00761 8.8474C1.45115 8.84851 1.89443 8.84963 2.33818 8.84389C2.48354 8.84186 2.52857 8.86753 2.52778 8.9999C2.52234 9.82834 2.52291 10.6568 2.52348 11.4852C2.52366 11.7401 2.52383 11.995 2.52383 12.2499L2.52383 12.2512ZM3.26327 11.8521L3.2609 11.8521L3.26011 11.8514L3.26011 8.61493C3.26011 8.33397 3.12818 8.21983 2.80191 8.21915C2.7047 8.21893 2.60747 8.21867 2.51022 8.2184C2.02342 8.21709 1.53617 8.21577 1.04891 8.21915C0.935149 8.21983 0.900389 8.19754 0.901179 8.09556C0.907499 7.54782 0.907499 6.9994 0.901179 6.45099C0.900389 6.35035 0.934359 6.32672 1.04891 6.32739C1.48514 6.33086 1.92137 6.33033 2.3576 6.3298C2.51624 6.32961 2.67487 6.32942 2.83351 6.32942C3.11949 6.32942 3.25932 6.2092 3.2609 5.96268C3.26213 5.75396 3.26187 5.54528 3.26161 5.33663C3.26087 4.74052 3.26014 4.14468 3.29408 3.54884C3.32094 3.07675 3.36518 2.60668 3.47894 2.14201C3.64879 1.44974 4.14648 1.06612 4.9507 0.940495C5.4247 0.866877 5.90344 0.831083 6.38296 0.817575C7.01338 0.799339 7.64538 0.802041 8.27579 0.791235C8.38007 0.789884 8.41878 0.81082 8.41799 0.9074C8.41246 1.4646 8.41325 2.02179 8.41799 2.57899C8.41878 2.66814 8.38639 2.69043 8.28685 2.69043C7.84762 2.69313 7.40917 2.6911 6.97151 2.74378C6.12858 2.84576 5.67987 3.22803 5.56216 3.95678C5.46317 4.57093 5.4667 5.18779 5.47023 5.80493C5.47064 5.87732 5.47106 5.94972 5.47131 6.02212C5.4721 6.2092 5.638 6.33009 5.87184 6.33009L5.87236 6.33009C6.66376 6.33144 7.45437 6.33279 8.24577 6.32807C8.37533 6.32671 8.42194 6.3463 8.41957 6.4699C8.41088 7.00953 8.41246 7.54849 8.41878 8.08813C8.42036 8.19146 8.38876 8.22118 8.26552 8.2205C7.67957 8.21645 7.09406 8.21696 6.50833 8.21747C6.31305 8.21763 6.11775 8.2178 5.9224 8.2178C5.60482 8.2178 5.46894 8.33397 5.46894 8.60413C5.46815 10.7748 5.46736 12.9462 5.47131 15.1169C5.47131 15.2331 5.44445 15.2743 5.29593 15.2722C4.98768 15.2685 4.67943 15.2667 4.37118 15.2667C4.06402 15.2667 3.75687 15.2685 3.44971 15.2722C3.30435 15.2736 3.25853 15.2479 3.25932 15.1155C3.26475 14.2835 3.26419 13.4519 3.26362 12.6201C3.26344 12.3641 3.26327 12.1081 3.26327 11.8521ZM3.42853 11.6836L3.42853 8.61493C3.42853 8.44738 3.38689 8.31715 3.30362 8.22423C3.20038 8.10904 3.03314 8.05121 2.80191 8.05073L1.07011 8.05073C1.07575 7.53255 1.07575 7.01426 1.07011 6.49585L2.51635 6.49804L2.83351 6.49784C3.05145 6.49784 3.2096 6.44361 3.30797 6.33516C3.38784 6.24709 3.42829 6.12326 3.42932 5.96367C3.43014 5.82412 3.43038 5.61504 3.43003 5.33642C3.42905 4.54504 3.43979 3.95237 3.46223 3.55841C3.49385 3.00267 3.55394 2.54391 3.64251 2.18214C3.69355 1.97408 3.78023 1.7951 3.90254 1.64518C4.1335 1.36211 4.4915 1.18269 4.97655 1.10692C5.40253 1.04076 5.87296 1.00043 6.38783 0.985925C6.64213 0.97857 7.02448 0.972664 7.5349 0.968209C7.84664 0.965488 8.0847 0.962793 8.24906 0.960124C8.24463 1.44342 8.24464 1.96412 8.2491 2.52222C8.23029 2.52233 8.20767 2.52245 8.18125 2.52259C7.63631 2.52548 7.22632 2.54347 6.95128 2.57658C6.41474 2.64149 6.01426 2.82528 5.74984 3.12794C5.5663 3.33802 5.44831 3.60536 5.39588 3.92998C5.32841 4.34861 5.29705 4.97391 5.30181 5.8059C5.30236 5.90235 5.30272 5.97466 5.30289 6.02283C5.30344 6.15378 5.33609 6.2577 5.40085 6.33457C5.49291 6.44387 5.64984 6.49851 5.87165 6.49851L7.04958 6.49978L8.24753 6.49648L8.25071 6.49645C8.24368 6.9539 8.24342 7.47243 8.24994 8.05204L7.12405 8.04871L5.9224 8.04938C5.7223 8.04938 5.5706 8.09342 5.4673 8.1815C5.44795 8.198 5.43027 8.2159 5.41429 8.2352C5.33844 8.32674 5.30052 8.44971 5.30052 8.60409L5.29993 11.8695L5.30287 15.1039L5.29796 15.1038C4.6812 15.0964 4.06459 15.0964 3.44814 15.1038C3.44082 15.1039 3.43403 15.1039 3.42777 15.1038L3.43237 13.5367L3.43169 11.852L3.43162 11.6836L3.42853 11.6836Z" fill="rgb(255,255,255)" fill-rule="evenodd" />
</svg>
