<svg viewBox="0 0 15.1578 15.1572" xmlns="http://www.w3.org/2000/svg" xmlns:xlink="http://www.w3.org/1999/xlink" width="15.157837" height="15.157227" fill="none" customFrame="#000000">
	<g id="instagram icon">
		<path id="Vector" d="M15.1561 7.60612C15.1561 8.70613 15.1567 9.8067 15.1561 10.9067C15.1545 13.0192 13.8085 14.6657 11.7394 15.0828C11.4698 15.1373 11.1957 15.1571 10.92 15.1571C8.69249 15.1565 6.46439 15.1582 4.23685 15.1565C2.12431 15.1549 0.456957 13.7759 0.0657063 11.6997C0.018382 11.4493 0.00407441 11.1896 0.00352412 10.9337C-0.000878137 8.69678 -0.000876928 6.45988 0.0013242 4.22298C0.00352533 2.11815 1.40234 0.438688 3.47141 0.0628445C3.72233 0.0171711 3.98207 0.00396428 4.2374 0.003414C6.46494 -0.000988262 8.69304 -0.00043798 10.9206 0.00121287C13.0331 0.00286372 14.7005 1.38187 15.0917 3.45809C15.139 3.70847 15.1523 3.9682 15.1539 4.22353C15.1605 5.35106 15.1567 6.47859 15.1567 7.60667L15.1561 7.60612ZM13.7567 7.58906C13.7567 6.47969 13.7578 5.36977 13.7556 4.2604C13.7556 4.05019 13.7595 3.83943 13.7155 3.63088C13.4326 2.28874 12.3728 1.40774 10.9993 1.40223C8.71615 1.39398 6.43248 1.39893 4.1488 1.40223C3.97546 1.40223 3.79882 1.40994 3.62989 1.4446C2.28665 1.72085 1.40564 2.78344 1.40069 4.1575C1.39244 6.44062 1.39739 8.72429 1.40069 11.008C1.40069 11.1813 1.4084 11.3579 1.44306 11.5269C1.71931 12.8701 2.7819 13.7511 4.15596 13.7561C6.43908 13.7643 8.72275 13.7594 11.0064 13.7561C11.1798 13.7561 11.3564 13.7484 11.5253 13.7137C12.8686 13.4375 13.7452 12.3749 13.7551 11.0008C13.7633 9.86393 13.7567 8.72649 13.7567 7.58961L13.7567 7.58906Z" fill="rgb(255,255,255)" fill-rule="nonzero" />
		<path id="Vector" d="M11.0439 7.5737C11.0423 9.48153 9.507 10.9871 7.5645 10.986C5.69629 10.9844 4.1654 9.43091 4.1676 7.53959C4.17036 5.63011 5.7084 4.11133 7.63824 4.11353C9.52516 4.11573 11.0456 5.66037 11.0439 7.5737ZM5.55487 7.59572C5.60054 8.76782 6.56078 9.68514 7.70427 9.6092C8.90609 9.52941 9.67318 8.58953 9.66108 7.57205C9.64677 6.33172 8.68212 5.43035 7.49626 5.48703C6.40395 5.53931 5.5125 6.50781 5.55487 7.59572Z" fill="rgb(255,255,255)" fill-rule="nonzero" />
		<path id="Vector" d="M11.3554 3.10943C11.7483 3.10448 12.0575 3.40714 12.0575 3.79674C12.0575 4.17258 11.7582 4.48239 11.3851 4.49229C11.0054 4.5022 10.673 4.18799 10.6653 3.8127C10.6576 3.42805 10.9652 3.11494 11.3554 3.10999L11.3554 3.10943Z" fill="rgb(255,255,255)" fill-rule="nonzero" />
	</g>
</svg>
