<svg viewBox="0 0 20.9847 15.7117" xmlns="http://www.w3.org/2000/svg" xmlns:xlink="http://www.w3.org/1999/xlink" width="20.984741" height="15.711670" fill="none" customFrame="#000000">
	<g id="mail icon">
		<path id="Vector" d="M10.493 0C12.8238 0 15.1524 0 17.4832 0C18.6667 0 19.627 0.450831 20.3348 1.4021C20.727 1.93183 20.9614 2.5337 20.9705 3.19418C20.9885 4.4971 20.9795 5.79777 20.9817 7.10069C20.9817 8.82965 20.9885 10.5586 20.9817 12.2853C20.9727 13.9331 19.9065 15.2744 18.3443 15.626C18.0558 15.6914 17.7605 15.7117 17.4652 15.7117C12.8126 15.7117 8.15991 15.7117 3.50952 15.7117C1.69265 15.7117 0.322099 14.5643 0.0358169 12.8083C0.00651244 12.6257 0.00200372 12.4386 0.00200372 12.2515C0.00200372 9.32106 -0.00250465 6.39062 0.00200372 3.46243C0.00425791 1.79884 1.07049 0.437304 2.63039 0.0901593C2.9347 0.0225336 3.24353 0.00225639 3.55686 0.00225639C5.87191 0.00225639 8.18471 0.00225639 10.4998 0.00225639L10.493 0ZM10.4885 14.7086C12.8171 14.7086 15.1479 14.7086 17.4765 14.7086C18.9642 14.7086 19.9719 13.719 19.9741 12.238C19.9809 9.31655 19.9809 6.39512 19.9741 3.4737C19.9719 1.9927 18.9642 1.00312 17.4742 1.00312C12.8148 1.00312 8.1554 1.00312 3.49599 1.00312C3.34045 1.00312 3.18492 1.00537 3.03163 1.02791C1.81437 1.20374 1.00061 2.17754 0.998354 3.4737C0.993846 6.39512 0.9961 9.31655 0.998354 12.238C0.998354 12.4161 1.00737 12.5964 1.03893 12.77C1.24406 13.9128 2.21787 14.7041 3.42837 14.7063C5.78174 14.7108 8.13511 14.7063 10.4862 14.7063L10.4885 14.7086Z" fill="rgb(255,255,255)" fill-rule="nonzero" />
		<path id="Vector" d="M17.9725 13.3529C17.7786 13.3439 17.6479 13.2199 17.5171 13.0959C16.1759 11.8268 14.8369 10.5555 13.4956 9.28411C13.3559 9.15112 13.2071 9.02488 13.0741 8.88286C12.9614 8.76339 12.8848 8.77692 12.772 8.88737C12.1769 9.47797 11.5751 10.0595 10.9732 10.6434C10.5968 11.0086 10.3736 11.0086 10.0016 10.6456C9.41105 10.0731 8.8182 9.50277 8.23662 8.92119C8.10362 8.7882 8.02923 8.80172 7.90074 8.92119C6.50315 10.2534 5.09879 11.5811 3.69443 12.9111C3.59975 13.0013 3.50508 13.0959 3.40589 13.1816C3.13088 13.416 2.84009 13.407 2.61918 13.1636C2.41856 12.9427 2.44786 12.6722 2.70484 12.4265C3.58397 11.5924 4.46311 10.7629 5.34449 9.93106C5.94862 9.36075 6.54823 8.78594 7.15911 8.22464C7.30338 8.09165 7.30564 8.02176 7.16362 7.88426C5.69615 6.46412 4.23769 5.03947 2.77472 3.61483C2.70709 3.54945 2.63947 3.48634 2.57635 3.41646C2.37798 3.20005 2.36671 2.94534 2.54479 2.74923C2.75669 2.51479 3.02719 2.48097 3.26613 2.68159C3.45548 2.84164 3.62906 3.01972 3.80714 3.19104C5.96665 5.28969 8.12616 7.38608 10.2789 9.4915C10.439 9.64703 10.5224 9.64478 10.6824 9.4915C12.9591 7.26887 15.2404 5.05301 17.5239 2.83489C17.6005 2.7605 17.6817 2.68384 17.7718 2.62523C17.9702 2.49449 18.2227 2.54184 18.4007 2.7357C18.5721 2.9228 18.5924 3.15723 18.4413 3.34658C18.3737 3.43224 18.2948 3.50662 18.2182 3.58326C16.762 5.0034 15.308 6.42354 13.8473 7.83692C13.6805 7.99922 13.694 8.07587 13.8563 8.22916C15.3396 9.61773 16.8161 11.0176 18.2925 12.4129C18.4661 12.5775 18.5811 12.7646 18.4819 13.0125C18.403 13.2109 18.1663 13.3597 17.9657 13.3507L17.9725 13.3529Z" fill="rgb(255,255,255)" fill-rule="nonzero" />
	</g>
</svg>
