<svg viewBox="0 0 18.837 18.8315" xmlns="http://www.w3.org/2000/svg" xmlns:xlink="http://www.w3.org/1999/xlink" width="18.836975" height="18.831543" fill="none" customFrame="#000000">
	<path id="phone icon" d="M0.342773 5.09571C0.357793 3.63132 0.703243 2.38165 1.62373 1.33166C2.5013 0.331062 3.74578 0.0626626 4.87869 0.635968C5.10183 0.74977 5.29924 0.900072 5.47732 1.07614C6.03949 1.63656 6.60379 2.19054 7.15952 2.7574C8.14437 3.76444 8.14008 5.37486 7.15308 6.37761C6.80978 6.7276 6.45789 7.07115 6.11244 7.41685C5.86998 7.65948 5.86569 7.83127 6.10386 8.06961C7.65516 9.62634 9.20647 11.1809 10.7578 12.7355C11.0045 12.9824 11.1848 12.9803 11.4294 12.7355C11.7619 12.4027 12.0924 12.0677 12.425 11.7349C13.4742 10.6913 15.0813 10.6849 16.1305 11.7242C16.6755 12.2631 17.2162 12.8042 17.7548 13.3496C18.7439 14.3502 18.7482 15.9649 17.7741 16.9719C16.8643 17.9103 15.7378 18.3612 14.4547 18.4707C12.8541 18.606 11.365 18.198 9.93385 17.5238C8.17012 16.6928 6.65958 15.5011 5.2649 14.1548C3.96035 12.8944 2.78882 11.5223 1.87263 9.94842C1.13023 8.67083 0.583087 7.32023 0.407143 5.83865C0.372813 5.55952 0.362084 5.27609 0.34921 5.09143L0.342773 5.09571ZM13.8153 17.8802C14.12 17.9038 14.4741 17.8652 14.8238 17.8072C15.7829 17.6505 16.6326 17.2661 17.3149 16.5532C18.0659 15.7673 18.0616 14.5628 17.2999 13.7898C16.7527 13.2358 16.2035 12.6818 15.6477 12.1364C14.8946 11.3956 13.6995 11.3849 12.9356 12.1128C12.5666 12.4649 12.2104 12.8321 11.8478 13.1907C11.3629 13.6695 10.8093 13.6695 10.3244 13.1864C8.77091 11.634 7.21745 10.0794 5.66614 8.52482C5.18337 8.04169 5.18122 7.48341 5.65756 6.99814C6.00516 6.64385 6.36348 6.29815 6.70678 5.93742C7.46849 5.13651 7.45776 3.9491 6.68318 3.16108C6.14248 2.60924 5.59534 2.06385 5.0439 1.52275C4.63837 1.12552 4.14487 0.949458 3.57842 0.968783C2.85963 0.994549 2.34467 1.3789 1.92841 1.92214C1.12808 2.96354 0.894207 4.16167 0.98647 5.44141C1.10019 6.98526 1.64733 8.38954 2.44766 9.69075C4.14058 12.4456 6.36348 14.6852 9.11635 16.3772C10.5346 17.2489 12.0645 17.8373 13.8132 17.8802L13.8153 17.8802Z" fill="rgb(255,255,255)" fill-rule="nonzero" />
	<path id="phone icon" d="M2.60566 0.210619C2.14749 0.394008 1.73592 0.693783 1.37093 1.10994L1.37088 1.11C1.25233 1.24522 1.14151 1.38589 1.03841 1.53202C0.365047 2.48635 0.0210895 3.6731 0.0065338 5.09227L1.48416e-05 5.72786L0.0537934 5.69206C0.0601021 5.76216 0.0665817 5.82424 0.073232 5.87831C0.236699 7.25482 0.739628 8.66792 1.58202 10.1176C2.42145 11.5596 3.57123 12.986 5.03137 14.3967C6.63536 15.9451 8.22175 17.0888 9.79054 17.828C11.4396 18.6048 13.0039 18.9308 14.4833 18.8057C15.4766 18.721 16.345 18.4409 17.0885 17.9655C17.4228 17.7517 17.7319 17.4985 18.0158 17.2057C18.2866 16.9257 18.4905 16.6183 18.6274 16.2834C18.7689 15.9372 18.8387 15.5617 18.8369 15.1568C18.8351 14.7533 18.7622 14.3795 18.6182 14.0354C18.4777 13.6995 18.2694 13.3919 17.9933 13.1126L17.1812 12.2951L16.3671 11.4852C16.0383 11.1595 15.6763 10.9249 15.2812 10.7815C14.9673 10.6675 14.6324 10.6111 14.2766 10.6122C13.9281 10.6133 13.5995 10.6697 13.2908 10.7812C12.8889 10.9265 12.5208 11.1653 12.1865 11.4978L11.5598 12.1279L11.1915 12.4978C11.1523 12.5371 11.1196 12.5641 11.0936 12.579C11.0676 12.5642 11.0349 12.5371 10.9957 12.4979L10.9951 12.4973L6.34171 7.83192C6.30858 7.79877 6.28494 7.77098 6.27081 7.74855C6.28634 7.72336 6.31283 7.69202 6.35029 7.65453C6.43363 7.57114 6.5594 7.44603 6.72761 7.27921C7.0245 6.98477 7.2462 6.76287 7.39272 6.61349C7.6712 6.33057 7.88037 6.01914 8.02025 5.6792C8.1606 5.3381 8.23118 4.96831 8.232 4.5698C8.23282 4.17151 8.16378 3.80163 8.02489 3.46016C7.88616 3.11909 7.67774 2.80637 7.39964 2.522C7.13409 2.25113 6.73321 1.84959 6.19699 1.31737C5.98248 1.10446 5.8214 0.944346 5.71374 0.837023C5.50114 0.626831 5.2734 0.459803 5.03052 0.335939C4.63337 0.134962 4.23164 0.0241785 3.82535 0.00358805C3.58023 -0.00883427 3.33345 0.0115717 3.08501 0.0648061C2.91993 0.100178 2.76014 0.148782 2.60566 0.210619ZM0.349512 5.09578C0.356647 5.19924 0.363182 5.33293 0.373533 5.47919C0.381667 5.59412 0.392156 5.71679 0.407143 5.83865C0.583087 7.32023 1.13023 8.67083 1.87263 9.94842C2.78882 11.5223 3.96035 12.8944 5.2649 14.1548C6.65958 15.5011 8.17012 16.6928 9.93385 17.5238C11.365 18.198 12.8541 18.606 14.4547 18.4707C15.7378 18.3612 16.8643 17.9103 17.7741 16.9719C18.7482 15.9649 18.7439 14.3502 17.7548 13.3496C17.2162 12.8042 16.6755 12.2631 16.1305 11.7242C15.0813 10.6849 13.4742 10.6913 12.425 11.7349C12.0924 12.0677 11.7619 12.4027 11.4294 12.7355C11.1848 12.9803 11.0045 12.9824 10.7578 12.7355C9.20647 11.1809 7.65516 9.62634 6.10386 8.06961C5.86569 7.83127 5.86998 7.65948 6.11244 7.41685C6.45789 7.07115 6.80978 6.7276 7.15308 6.37761C8.14008 5.37486 8.14437 3.76444 7.15952 2.7574C6.60379 2.19054 6.03949 1.63656 5.47732 1.07614C5.29924 0.900072 5.10183 0.74977 4.87869 0.635968C3.74578 0.0626626 2.5013 0.331062 1.62373 1.33166C0.790992 2.28155 0.428881 3.39487 0.356289 4.68276C0.34871 4.81722 0.344287 4.95359 0.342814 5.09187L0.342773 5.09571L0.34921 5.09143L0.349512 5.09578ZM13.8153 17.8802C14.12 17.9038 14.4741 17.8652 14.8238 17.8072C15.7829 17.6505 16.6326 17.2661 17.3149 16.5532C18.0659 15.7673 18.0616 14.5628 17.2999 13.7898C16.7527 13.2358 16.2035 12.6818 15.6477 12.1364C14.8946 11.3956 13.6995 11.3849 12.9356 12.1128C12.5666 12.4649 12.2104 12.8321 11.8478 13.1907C11.3629 13.6695 10.8093 13.6695 10.3244 13.1864C8.77091 11.634 7.21745 10.0794 5.66614 8.52482C5.18337 8.04169 5.18122 7.48341 5.65756 6.99814C6.00516 6.64385 6.36348 6.29815 6.70678 5.93742C7.46849 5.13651 7.45776 3.9491 6.68318 3.16108C6.14248 2.60924 5.59534 2.06385 5.0439 1.52275C4.63837 1.12552 4.14487 0.949458 3.57842 0.968783C2.85963 0.994549 2.34467 1.3789 1.92841 1.92214C1.12808 2.96354 0.894207 4.16167 0.98647 5.44141C1.10019 6.98526 1.64733 8.38954 2.44766 9.69075C4.14058 12.4456 6.36348 14.6852 9.11635 16.3772C10.5346 17.2489 12.0645 17.8373 13.8132 17.8802L13.8153 17.8802ZM13.8174 17.544L13.8283 17.544L13.8413 17.545C14.0722 17.5629 14.3814 17.5397 14.7688 17.4755L14.7696 17.4753C15.5131 17.3538 16.1462 17.0902 16.669 16.6843C16.8115 16.5737 16.9459 16.4525 17.072 16.3207C17.2442 16.1405 17.3687 15.9433 17.4455 15.7289C17.5084 15.5535 17.5394 15.3666 17.5384 15.1683C17.5374 14.9664 17.5034 14.777 17.4363 14.6001C17.3571 14.3912 17.2318 14.1997 17.0604 14.0258C16.3776 13.3345 15.8282 12.7847 15.4122 12.3764C15.2514 12.2182 15.0743 12.1003 14.8811 12.0225C14.6993 11.9494 14.5032 11.9119 14.2927 11.9101C14.0805 11.9082 13.8823 11.9429 13.6982 12.014C13.5059 12.0883 13.3291 12.2023 13.1676 12.3562C13.0098 12.5068 12.7757 12.7378 12.4652 13.0494C12.2964 13.2187 12.1694 13.3455 12.0842 13.4298C11.833 13.6778 11.5655 13.8246 11.2818 13.8702C11.2172 13.8806 11.1517 13.8857 11.0854 13.8855C11.0193 13.8854 10.954 13.88 10.8896 13.8695C10.6054 13.8228 10.3379 13.6745 10.087 13.4246L7.75663 11.0941L5.4282 8.76242C5.18054 8.51458 5.03239 8.24958 4.98375 7.96743C4.97223 7.90059 4.96629 7.83278 4.96593 7.76401C4.96557 7.69391 4.97102 7.62477 4.98228 7.55659C5.02869 7.27562 5.1738 7.01096 5.41759 6.76259C5.50906 6.66936 5.64701 6.53075 5.83146 6.34675C6.11531 6.0636 6.32589 5.84988 6.4632 5.7056C6.65255 5.50652 6.78489 5.2892 6.86023 5.05364C6.91151 4.89332 6.93638 4.72455 6.93485 4.54733C6.93332 4.37069 6.90571 4.20286 6.85202 4.04384C6.77271 3.80894 6.63649 3.59326 6.44338 3.39679C5.94002 2.88307 5.39502 2.3384 4.80839 1.76276C4.67129 1.62847 4.52067 1.52363 4.35651 1.44826C4.12734 1.34303 3.87179 1.29523 3.58989 1.30484C3.48915 1.30846 3.39061 1.32149 3.29426 1.34393C2.88915 1.43832 2.52284 1.69923 2.19532 2.12666C2.07254 2.28644 1.96244 2.45331 1.86504 2.6273C1.42543 3.41253 1.24437 4.34251 1.32186 5.41723C1.42235 6.78148 1.89309 8.14727 2.73408 9.51458C3.65717 11.0167 4.73523 12.3566 5.96825 13.5343C6.97334 14.4942 8.0814 15.3464 9.29243 16.0907C10.8073 17.0219 12.3156 17.5063 13.8174 17.544Z" fill="rgb(255,255,255)" fill-rule="evenodd" />
</svg>
