<svg viewBox="0 0 14.1016 14.101" xmlns="http://www.w3.org/2000/svg" xmlns:xlink="http://www.w3.org/1999/xlink" width="14.101562" height="14.100967" fill="none" customFrame="#000000">
	<rect id="Icon" width="13.121339" height="13.121339" x="0.573975" y="0.574066" />
	<path id="Vector" d="M10.5973 10.5919L13.6953 13.6954L10.5973 10.5919ZM10.5948 10.5949C9.49396 11.6958 8.00089 12.3142 6.44405 12.3142C4.88721 12.3142 3.39413 11.6958 2.29328 10.5949C1.19243 9.49405 0.573975 8.00098 0.573975 6.44414C0.573975 4.8873 1.19243 3.39422 2.29328 2.29337C3.39413 1.19252 4.88721 0.574066 6.44405 0.574066C8.00089 0.574066 9.49396 1.19252 10.5948 2.29337C11.6957 3.39422 12.3141 4.8873 12.3141 6.44414C12.3141 8.00098 11.6957 9.49405 10.5948 10.5949Z" fill-rule="nonzero" stroke="rgb(138,138,138)" stroke-linecap="round" stroke-width="1.14811718" />
</svg>
