<svg viewBox="0 0 12.9122 18.7065" xmlns="http://www.w3.org/2000/svg" xmlns:xlink="http://www.w3.org/1999/xlink" width="12.912231" height="18.706543" fill="none" customFrame="#000000">
	<g id="location icon">
		<path id="Vector" d="M6.41932 0.000415708C9.26705 0.00872176 11.7709 1.83398 12.6028 4.52971C13.1277 6.23078 12.9902 7.89698 12.1488 9.48011C10.8103 11.9973 9.31315 14.4226 7.8816 16.8862C7.61041 17.3526 7.3388 17.8186 7.06553 18.2837C6.73661 18.8439 6.16848 18.8485 5.84247 18.2912C4.37271 15.7778 2.89673 13.2681 1.44068 10.7468C0.950619 9.89832 0.441458 9.05194 0.207643 8.08179C-0.252928 6.17264 0.0469199 4.39016 1.16491 2.77879C2.28374 1.16617 3.85358 0.272023 5.79512 0.0323935C6.01399 0.00539888 6.23618 0.00872135 6.41932 0L6.41932 0.000415708ZM6.76112 1.26418C5.61239 1.27498 4.80878 1.45065 4.06414 1.85183C2.74597 2.56242 1.86055 3.63058 1.45937 5.08164C1.07106 6.48578 1.27082 7.81143 1.96977 9.08848C3.36768 11.643 4.88063 14.1303 6.34083 16.6482C6.42638 16.7961 6.46791 16.8127 6.56136 16.6516C8.05478 14.0808 9.60635 11.5437 11.0205 8.92693C11.6156 7.82555 11.7838 6.64941 11.5379 5.42676C11.0524 3.01302 8.91072 1.26833 6.76112 1.26377L6.76112 1.26418Z" fill="rgb(255,255,255)" fill-rule="nonzero" />
		<path id="Vector" d="M6.44706 9.27534C4.76467 9.26952 3.39583 7.89279 3.40829 6.21871C3.42116 4.53258 4.79914 3.1625 6.46657 3.17786C8.14274 3.19364 9.49455 4.55542 9.49496 6.22784C9.49496 7.91065 8.12488 9.28073 6.44706 9.27534ZM6.4483 4.44163C5.47359 4.44412 4.66748 5.25437 4.66915 6.23117C4.67081 7.20837 5.48065 8.01614 6.45578 8.01323C7.43215 8.01032 8.23826 7.19965 8.23493 6.22369C8.23161 5.2469 7.42177 4.43914 6.4483 4.44163Z" fill="rgb(255,255,255)" fill-rule="nonzero" />
	</g>
</svg>
