<svg width="29" height="29" viewBox="0 0 29 29" fill="none" xmlns="http://www.w3.org/2000/svg">
<path fill-rule="evenodd" clip-rule="evenodd" d="M29 14.1267C29 21.927 22.626 28.2524 14.7639 28.2524C12.2668 28.2524 9.92161 27.6152 7.88238 26.4948L0 29L2.56904 21.4215C1.27237 19.2921 0.526775 16.796 0.526775 14.1277C0.526775 6.32435 6.90076 0 14.7639 0C22.627 0 29 6.32434 29 14.1267ZM14.7639 2.24994C8.16198 2.24994 2.79394 7.57746 2.79394 14.1267C2.79394 16.7241 3.63982 19.1311 5.07325 21.0903L3.57903 25.5L8.17819 24.0392C10.0675 25.2791 12.3316 26.0024 14.7639 26.0024C21.3628 26.0024 26.7328 20.6749 26.7328 14.1267C26.7328 7.57847 21.3628 2.24994 14.7639 2.24994ZM21.9524 17.3806C21.8642 17.2357 21.6312 17.1496 21.2838 16.9764C20.9343 16.8031 19.2182 15.9653 18.8981 15.8499C18.579 15.7344 18.3439 15.6766 18.113 16.0231C17.88 16.3695 17.2114 17.1496 17.0067 17.3806C16.8041 17.6125 16.6005 17.6399 16.252 17.4667C15.9025 17.2934 14.7771 16.9267 13.4449 15.7486C12.4086 14.8297 11.7076 13.6972 11.503 13.3507C11.3003 13.0043 11.4827 12.8179 11.6559 12.6446C11.8129 12.4886 12.0054 12.2404 12.1797 12.0388C12.3549 11.8362 12.4127 11.6904 12.5292 11.4594C12.6456 11.2284 12.5879 11.0268 12.4998 10.8536C12.4137 10.6804 11.7147 8.97646 11.4239 8.28253C11.1352 7.59063 10.8435 7.61596 10.6388 7.61596C10.4342 7.61596 10.0594 7.67674 10.0594 7.67674C10.0594 7.67674 9.35938 7.76285 9.04028 8.1093C8.72117 8.45576 7.81958 9.29353 7.81958 10.9964C7.81958 12.6993 9.06864 14.3475 9.2439 14.5775C9.41915 14.8095 11.6569 18.4199 15.2056 19.8057C18.7532 21.1916 18.7532 20.7296 19.3934 20.6709C20.0327 20.6141 21.458 19.8341 21.7487 19.0247C22.0395 18.2163 22.0395 17.5224 21.9534 17.3785L21.9524 17.3806Z" fill="#0095DA"/>
</svg>
